<?xml version="1.0" encoding="UTF-8" standalone="no" ?>
<!DOCTYPE svg PUBLIC "-//W3C//DTD SVG 1.1//EN" "http://www.w3.org/Graphics/SVG/1.1/DTD/svg11.dtd">
<svg xmlns="http://www.w3.org/2000/svg" xmlns:xlink="http://www.w3.org/1999/xlink" version="1.1" width="400" height="400" viewBox="0 0 400 400" xml:space="preserve">
<desc>Created with Fabric.js 3.6.2</desc>
<defs>
</defs>
<g transform="matrix(3.17 0 0 3.17 200 200)"  >
<path style="stroke: none; stroke-width: 1; stroke-dasharray: none; stroke-linecap: butt; stroke-dashoffset: 0; stroke-linejoin: miter; stroke-miterlimit: 4; fill: rgb(0,0,0); fill-rule: nonzero; opacity: 1;"  transform=" translate(-31.5, -32)" d="M 62.827 26.474 c -0.62 -4.577 -2.548 -8.12 -5.003 -12.605 c -2.456 -4.486 -6.91 -7.683 -10.053 -9.914 C 44.628 1.726 40.267 0.69 36.067 0.276 s -9.404 -0.442 -12.9 0.483 c -4.865 1.287 -7.986 2.62 -11.29 5.634 s -5.762 6.072 -7.85 9.5 C 1.935 19.32 0.35 24.564 0.1 27.118 c -0.252 2.553 -0.046 6.05 0.85 10.03 c 0.894 3.978 2.914 7.68 5.806 12.144 c 2.892 4.462 6.954 7.29 11.66 10.144 c 4.704 2.852 14.573 5.014 18.315 4.485 c 3.742 -0.528 8.883 -1.816 14.162 -6.002 c 5.28 -4.186 8.217 -11.11 9.823 -15.434 c 1.607 -4.325 2.732 -11.433 2.112 -16.01 z M 55.39 46.117 c -0.16 0 -2.18 -3.703 -2.294 -3.98 c -0.088 -0.21 0.826 -1.908 0.918 -1.93 c 0.092 -0.024 2.226 3.886 2.203 3.978 c -0.023 0.092 -0.666 1.932 -0.826 1.932 z M 47.634 21.62 c -0.092 -0.252 -0.138 -0.482 -0.115 -0.574 c 0.023 -0.092 0.643 -1.656 0.46 -3.013 c -0.185 -1.357 -0.78 -3.52 -0.735 -3.588 c 0.046 -0.07 2.456 1.863 3.833 4.968 s 2.548 5.474 2.984 9.683 s 0.23 7.314 -1.262 10.144 s -2.57 4.44 -3.397 5.29 c -0.825 0.85 -2.547 1.656 -2.753 1.656 s -0.94 -3.726 -1.515 -4.9 c -0.574 -1.172 -1.607 -2.713 -1.584 -2.966 c 0 0 1.72 -1.54 2.318 -2.46 c 0.597 -0.92 2.548 -4.164 2.456 -7.752 c -0.092 -3.59 -0.597 -6.234 -0.69 -6.487 z m 9.456 21.323 c -0.185 0.16 -2.656 -4.102 -2.526 -4.232 c 0.207 -0.206 0.895 -2.414 1.033 -2.506 s 2.41 4.048 2.41 4.324 c 0 0.276 -0.734 2.254 -0.918 2.415 z m 3.12 -11.317 c -0.297 -0.253 -2.202 -4.53 -2.455 -4.623 c -0.252 -0.092 -0.826 0.897 -0.69 1.265 s 2.663 4.53 2.732 4.922 c 0.07 0.39 -0.184 2.392 -0.252 2.093 c -0.07 -0.3 -1.974 -4.002 -2.203 -4.002 c -0.23 0 -0.85 0.806 -0.826 0.944 c 0.023 0.138 2.502 4.738 2.502 5.037 c 0 0.3 -0.344 2.186 -0.55 1.84 c -0.208 -0.344 -2.618 -4.346 -2.663 -4.46 c -0.046 -0.116 0.046 -5.613 -0.23 -8.074 c -0.274 -2.46 -1.192 -7.337 -4.612 -11.317 c -3.42 -3.98 -7.046 -6.717 -12.28 -7.96 s -8.4 -1.172 -12.324 -0.988 c -3.926 0.184 -9.595 2.438 -13.474 8.05 c -3.88 5.612 -4.453 7.176 -5.325 11.225 c -0.87 4.048 0.093 10.052 0.804 12.65 c 0.712 2.6 2.57 6.372 4.682 8.327 c 2.112 1.955 4.75 3.174 6.817 3.933 s 5.187 1.22 5.44 1.127 c 0.252 -0.092 0.138 -3.266 0 -3.634 c -0.138 -0.368 -0.252 -0.552 -1.102 -0.506 c -0.848 0.046 -2.386 0.023 -3.396 -0.437 c -1.01 -0.46 -1.836 -1.38 -2.41 -2.415 c -0.574 -1.035 -1.4 -2.3 -1.836 -2.783 c -0.436 -0.484 -1.354 -1.312 -1.24 -1.473 c 0.116 -0.16 1.837 -0.322 3.03 0.046 c 1.195 0.368 3.214 1.725 4.086 2.277 c 0.872 0.552 1.997 1.357 2.387 1.357 c 0.39 0 1.195 -1.84 1.54 -2.277 c 0.343 -0.437 1.147 -1.91 0.802 -2.23 c -0.344 -0.323 -2.456 -0.415 -3.512 -0.69 c -1.056 -0.277 -2.96 -1.312 -4.315 -3.083 c -1.354 -1.77 -1.974 -4.416 -1.95 -6.28 c 0.022 -1.862 1.835 -5.45 2.202 -6.163 c 0.367 -0.713 0.85 -1.38 0.62 -1.633 c -0.23 -0.252 -1.216 -1.632 -1.446 -2.598 c -0.228 -0.966 0.598 -3.335 0.758 -3.427 c 0.16 -0.092 1.262 0.207 2.09 0.322 c 0.825 0.115 2.66 0.62 3.35 1.08 c 0.69 0.46 0.94 0.69 1.33 0.69 c 0.39 0 3.42 -0.69 4.454 -0.92 c 1.033 -0.23 4.085 -0.597 5.233 -0.367 c 1.148 0.23 2.87 1.265 3.167 1.08 c 0.298 -0.183 0.987 -1.494 2.456 -1.862 c 1.47 -0.368 3.97 -0.53 4.27 -0.276 c 0.297 0.253 0.733 2.898 0.504 4.255 c -0.23 1.357 -0.62 2.14 -0.39 2.507 c 0.23 0.368 1.33 2.852 0.757 5.06 c -0.575 2.208 -1.4 5.36 -4.132 7.452 c -2.73 2.093 -3.626 2.438 -3.948 2.645 c -0.32 0.208 0 0.852 0.298 1.105 s 2.318 1.61 3.305 4.646 c 0.987 3.037 1.148 4.83 1.148 5.452 s 0.713 0.874 1.263 0.76 c 0.55 -0.116 1.193 -0.507 2.09 -1.197 c 0.894 -0.69 3.442 -2.507 3.625 -2.415 c 0.184 0.092 1.767 3.473 2.157 3.588 c 0.39 0.115 0.666 -0.16 0.71 -0.39 c 0.047 -0.23 -1.238 -2.692 -1.583 -3.36 c -0.344 -0.666 -0.597 -1.057 -0.505 -1.264 c 0.092 -0.207 0.872 -1.15 1.033 -0.99 c 0.16 0.162 1.86 2.853 2.157 3.313 c 0.298 0.46 0.528 0.552 0.207 1.104 c -0.32 0.553 -1.446 2.025 -1.997 2.508 c -0.55 0.483 -0.757 1.08 -1.08 0.828 c -0.32 -0.253 -1.927 -3.15 -2.18 -3.197 c -0.25 -0.047 -0.94 0.574 -0.87 0.78 s 2.18 3.336 2.18 3.474 s -1.057 1.495 -2.158 2.346 s -1.814 1.38 -2.02 1.08 c -0.208 -0.298 -2.365 -5.312 -2.71 -5.38 c -0.343 -0.07 -1.055 0.183 -0.94 0.597 c 0.115 0.414 2.754 5.06 2.73 5.29 s -0.87 0.782 -1.124 0.552 c -0.252 -0.23 -3.03 -5.958 -3.374 -6.004 s -0.94 0.115 -0.94 0.667 s 3.58 5.635 3.42 5.91 c -0.162 0.277 -0.827 0.898 -1.08 0.645 c -0.252 -0.253 -3.535 -6.808 -3.764 -6.854 c -0.23 -0.046 -1.056 0.184 -1.056 0.345 c 0 0.16 3.718 7.06 3.695 7.22 c -0.023 0.162 -1.446 0.852 -1.767 0.69 c -0.32 -0.16 -3.58 -7.45 -3.833 -7.612 c -0.252 -0.16 -1.262 0.53 -1.193 0.62 c 0.07 0.093 4.017 6.947 3.81 7.292 c -0.207 0.345 -1.125 0.46 -1.285 0.3 c -0.162 -0.162 -3.857 -7.223 -4.11 -7.292 s -1.032 0.322 -0.963 0.62 c 0.07 0.3 3.925 6.74 3.81 6.786 c -0.115 0.046 -1.102 0.092 -1.262 -0.023 c -0.16 -0.114 -3.49 -5.335 -3.902 -5.45 s -0.895 0.506 -0.895 0.644 s 3.19 4.738 3.03 4.784 c -0.16 0.046 -1.216 -0.046 -1.446 -0.184 c -0.23 -0.138 -2.433 -4.048 -2.73 -4.14 c -0.3 -0.092 -1.01 0.437 -0.92 0.667 c 0.093 0.23 2.25 3.175 1.975 3.175 s -1.01 0.023 -1.33 -0.16 c -0.322 -0.185 -1.837 -3.267 -2.113 -3.36 c -0.275 -0.09 -0.826 0.323 -0.85 0.438 c -0.022 0.115 1.172 2.277 0.92 2.3 c -0.253 0.023 -1.08 -0.023 -1.286 -0.184 c -0.207 -0.162 -1.607 -2.508 -1.813 -2.577 c -0.207 -0.07 -0.872 0.3 -0.803 0.506 s 0.734 1.218 0.505 1.24 c -0.23 0.024 -4.958 -1.287 -7.505 -3.035 c -2.548 -1.748 -7.3 -7.13 -8.768 -8.763 c -1.47 -1.633 -3.512 -6.51 -4.223 -9.155 c -0.71 -2.645 -0.894 -6.578 -0.87 -8.67 c 0.022 -2.094 1.652 -7.59 2.57 -9.455 c 0.918 -1.863 4.453 -6.923 6.84 -9.338 s 6.243 -5.267 10.305 -6.486 s 7.482 -1.472 9.364 -1.45 c 4.475 0.056 9.57 0.714 12.69 1.772 c 3.122 1.058 8.952 5.658 10.398 7.314 c 1.446 1.656 3.19 4.623 4.223 6.785 c 1.034 2.16 1.79 4.024 1.585 3.863 s -1.492 -2.415 -1.744 -2.392 c -0.25 0.024 -0.802 0.415 -0.71 0.714 c 0.092 0.3 2.433 3.933 2.662 4.393 c 0.23 0.46 0.46 0.99 0.482 1.08 c 0.023 0.093 0.32 3.244 0.23 3.083 c -0.092 -0.16 -2.318 -4.21 -2.617 -4.324 c -0.298 -0.115 -0.528 0.345 -0.46 0.46 c 0.07 0.115 3.1 5.29 3.1 5.543 c -0.003 0.253 0.112 2.37 -0.186 2.116 z m -41.634 -9.844 c 0.482 0.46 -0.62 1.196 -1.4 2.92 c -0.78 1.726 -1.492 5.13 -1.08 7.177 c 0.414 2.046 1.355 4.46 3.558 6.37 c 2.203 1.91 5.187 2.024 5.508 2.185 c 0.32 0.16 -0.55 1.31 -0.734 1.54 c -0.184 0.23 -0.16 0.185 -0.597 -0.045 c -0.435 -0.23 -2.937 -2.37 -5.553 -2.92 c -2.617 -0.553 -4.223 0.23 -4.797 0.735 c -0.574 0.506 0.07 1.426 0.803 1.978 c 0.734 0.552 1.584 1.587 2.662 3.565 c 1.08 1.978 1.744 2.415 3.49 3.013 c 1.743 0.6 3.12 0.622 3.396 0.645 c 0.276 0.023 0.208 0.828 0.024 1.127 c -0.184 0.3 -0.895 -0.46 -1.95 -0.76 c -1.057 -0.298 -3.03 -0.482 -4.132 -1.172 s -4.66 -4.853 -5.325 -6.67 c -0.666 -1.817 -2.066 -5.91 -2.09 -7.958 c -0.022 -2.047 -0.183 -5.543 0.62 -8.165 c 0.804 -2.622 2.572 -6.97 5.257 -9.96 c 2.685 -2.99 6.564 -5.29 12.302 -5.91 c 5.738 -0.622 10.787 1.103 13.932 2.184 c 3.144 1.082 3.88 1.75 3.88 1.956 c 0 0 -0.942 0.184 -3.42 0.345 c -2.48 0.162 -4.086 1.473 -4.178 1.634 c -0.092 0.16 -2.617 -0.414 -5.256 -0.62 c -2.64 -0.208 -6.29 0.965 -6.426 0.965 s -0.505 -0.024 -1.492 -0.415 c -0.987 -0.39 -5.692 -1.426 -6.243 -1.38 c -0.55 0.046 -1.767 1.54 -2.02 3.772 c -0.252 2.232 0.78 3.405 1.263 3.865 z M 37.26 2.277 c -4.11 -0.575 -6.732 -0.306 -6.91 -0.138 c -0.412 0.39 -0.274 1.15 0.23 1.24 c 0.505 0.093 2.96 -0.298 6.197 0.024 c 3.236 0.322 5.623 1.54 6.128 1.564 c 0.505 0.023 0.803 -0.805 0.528 -1.104 c -0.276 -0.3 -2.066 -1.012 -6.174 -1.587 z M 6.824 17.664 c -3.26 3.38 -3.856 7.82 -4.13 9.34 s 0.71 2.16 1.17 1.954 c 0.46 -0.207 -0.023 -1.495 1.033 -4.876 s 2.41 -4.6 2.846 -5.45 c 0.435 -0.853 -0.687 -1.208 -0.92 -0.968 z m 15.01 13.088 c -0.367 -0.966 -0.092 -2.23 0.138 -3.312 c 0.23 -1.08 -0.804 -1.035 -1.056 -0.782 c -0.666 0.667 -0.918 2.783 -0.666 4.094 c 0.253 1.31 1.424 3.243 2.044 3.542 c 0.62 0.3 1.216 -0.092 1.08 -0.736 c -0.14 -0.644 -1.172 -1.84 -1.54 -2.806 z m -3.74 10.604 c -1.01 0.667 -0.024 1.334 0.39 1.334 s 0.825 -0.16 0.642 -0.805 c -0.184 -0.644 -0.793 -0.688 -1.033 -0.53 z m 2.088 1.817 c -0.734 0.414 -0.07 1.357 0.413 1.38 s 0.872 -0.345 0.895 -0.828 c 0.024 -0.483 -0.987 -0.733 -1.307 -0.552 z m 2.87 1.288 c -1.034 0.23 -0.69 1.243 -0.185 1.312 s 0.94 -0.115 1.08 -0.644 c 0.136 -0.53 -0.246 -0.812 -0.896 -0.667 z m 18.43 -26.473 c 0.23 0.023 0.917 0.138 1.238 0.138 c 0.322 0 0.3 1.886 0.46 2.46 c 0.16 0.576 1.01 0.6 1.33 0.277 c 0.322 -0.322 -0.114 -3.404 -0.343 -3.703 c -0.23 -0.3 -2.446 0.12 -2.73 0.183 c -0.208 0.045 -0.185 0.62 0.045 0.644 z m 6.104 36.433 c 0.23 0.046 0.826 -0.23 0.872 -0.575 c 0.045 -0.345 -1.722 -4.53 -1.883 -4.623 c -0.16 -0.092 -1.216 0.262 -1.216 0.46 c 0 0.39 1.998 4.692 2.227 4.738 z" stroke-linecap="round" />
</g>
</svg>