<?xml version="1.0" encoding="UTF-8" standalone="no" ?>
<!DOCTYPE svg PUBLIC "-//W3C//DTD SVG 1.1//EN" "http://www.w3.org/Graphics/SVG/1.1/DTD/svg11.dtd">
<svg xmlns="http://www.w3.org/2000/svg" xmlns:xlink="http://www.w3.org/1999/xlink" version="1.1" width="400" height="400" viewBox="0 0 400 400" xml:space="preserve">
<desc>Created with Fabric.js 3.6.2</desc>
<defs>
</defs>
<g transform="matrix(3.13 0 0 3.13 200 200)" id="Layer_1"  >
<path style="stroke: none; stroke-width: 1; stroke-dasharray: none; stroke-linecap: butt; stroke-dashoffset: 0; stroke-linejoin: miter; stroke-miterlimit: 4; fill: rgb(0,0,0); fill-rule: nonzero; opacity: 1;"  transform=" translate(-32, -32)" d="M 61.076 16.184 C 55.586 1.652 34.89 -1.19 28.66 0.39 c -4.022 1.02 -17.318 2 -23.865 14.215 C -1.753 26.82 -2.703 44.51 9.018 55.04 s 28.616 12.425 42.238 2.21 S 66.566 30.715 61.076 16.184 z M 60.838 36.534 c -0.08 0.236 -1.11 2.526 -1.11 2.526 s -4.91 -6.24 -5.147 -6.24 s -0.553 0.95 -0.395 1.186 c 0.158 0.237 5.07 6.24 5.07 6.24 l -1.347 2.21 c 0 0 -4.277 -5.765 -4.593 -5.844 c -0.317 -0.08 -0.95 0.474 -0.713 0.71 c 0.238 0.238 4.752 5.766 4.514 6.24 s -1.98 2.053 -1.98 2.053 s -3.643 -5.37 -3.88 -5.45 c -0.24 -0.078 -1.11 0.712 -0.872 1.186 c 0.238 0.475 3.8 5.37 3.564 5.687 c -0.238 0.316 -1.98 2.132 -1.98 2.132 s -2.93 -4.976 -3.247 -5.055 c -0.316 -0.08 -1.187 0.948 -0.95 1.106 c 0.24 0.16 3.565 4.74 3.406 5.055 c -0.158 0.316 -1.98 1.58 -1.98 1.58 l -2.93 -4.503 l -1.11 1.027 c 0 0 2.614 4.185 2.535 4.58 c -0.078 0.395 -2.296 1.58 -2.296 1.58 l -2.613 -4.58 c 0 0 -1.108 0.552 -1.108 0.79 c 0 0.236 2.613 4.738 2.613 4.738 l -1.98 0.87 c 0 0 -2.376 -4.74 -2.613 -4.818 c -0.238 -0.08 -1.11 -0.158 -0.95 0.474 s 2.138 4.975 2.138 4.975 l -1.98 0.63 c 0 0 -2.138 -4.343 -2.376 -4.5 c -0.238 -0.16 -1.267 0.236 -1.11 0.473 c 0.16 0.237 2.377 4.74 2.06 4.817 s -2.772 0.316 -2.772 0.316 s -1.82 -4.186 -2.06 -4.265 c -0.237 -0.078 -1.03 0.16 -0.95 0.554 c 0.08 0.395 1.506 3.87 1.506 3.87 H 31.06 c 0 0 -1.426 -2.922 -1.742 -3.238 c -0.317 -0.316 -1.346 0.237 -1.11 0.474 c 0.24 0.237 1.427 2.922 1.19 3 c -0.24 0.08 -10.138 0.79 -18.85 -6.633 S 0.49 33.61 1.678 26.74 C 2.87 19.87 8.412 8.023 19.024 4.31 c 3.735 -1.305 10.533 -4.58 21.462 -1.894 S 56.958 12.84 57.908 14.42 s 1.663 4.344 1.663 4.344 s -3.642 -4.66 -4.196 -4.74 c -0.554 -0.078 -0.87 0.79 -0.634 1.186 c 0.238 0.395 4.83 4.896 5.148 5.45 c 0.317 0.552 0.95 3.87 0.95 3.87 s -4.118 -5.37 -4.593 -5.45 c -0.475 -0.08 -0.792 0.79 -0.634 1.027 c 0.16 0.237 5.386 5.923 5.466 6.24 c 0.08 0.315 0.475 3.553 0.475 3.553 s -4.988 -5.923 -5.305 -6.002 c -0.317 -0.08 -0.554 1.106 -0.554 1.106 s 5.465 6.002 5.545 6.318 c 0.08 0.316 0.158 3.396 0.158 3.396 S 56.166 28.4 55.77 28.4 s -0.475 1.343 -0.475 1.343 S 60.918 36.296 60.838 36.534 L 60.838 36.534 z M 14.43 13.708 c 2.772 -3.713 6.494 -5.055 6.494 -5.055 s -0.475 -1.027 -0.792 -1.106 c -0.317 -0.08 -3.168 0.947 -6.652 4.66 s -4.375 6.43 -4.198 6.87 c 0.158 0.395 1.11 0.87 1.584 0.632 c 0.475 -0.237 0.792 -2.29 3.564 -6.003 L 14.43 13.708 z M 43.257 16 c -1.82 0.158 -26.61 11.45 -29.857 13.426 c -3.247 1.974 -2.613 4.107 -1.822 5.212 s 8.553 3 8.553 3 c 0.555 0.396 4.99 9.636 5.703 9.715 c 0.713 0.08 5.544 -6.555 6.02 -6.713 c 0.474 -0.158 2.93 0.87 4.592 1.422 c 1.663 0.553 5.465 2.21 6.81 1.106 c 1.347 -1.106 3.644 -17.61 4.198 -22.192 c 0.556 -4.58 -2.375 -5.134 -4.196 -4.976 H 43.257 z M 44.762 19.396 c -0.053 0.21 -1.426 1.685 -1.426 1.685 l -0.21 -1.368 l 1.425 -1.422 c 0 0 0.264 0.895 0.212 1.106 L 44.762 19.396 z M 12.687 32.11 c 0.38 -1.434 3.722 -2.526 7.365 -4.5 S 42.94 17.42 43.494 17.34 s 0.158 0.632 0.158 0.632 S 21.24 36.138 20.845 36.138 C 20.449 36.138 11.975 34.796 12.687 32.11 L 12.687 32.11 z M 42.544 22.08 c -0.106 0.16 -1.848 2.107 -1.848 2.107 s -0.528 -2 -0.422 -2.264 c 0 0 1.742 -1.58 1.795 -1.422 c 0.052 0.16 0.58 1.423 0.474 1.58 L 42.544 22.08 z M 40.01 25.556 L 38.584 27.4 l -1.003 -3.213 c 0 0 1.638 -1.474 1.69 -1.316 c 0.053 0.158 0.74 2.686 0.74 2.686 L 40.01 25.556 z M 32.618 28.346 c 0.158 -0.105 1.32 -1.316 1.426 -1.158 c 0.106 0.158 1.584 4.317 1.478 4.528 c -0.106 0.21 -1.056 1.37 -1.056 1.37 S 32.618 28.346 32.618 28.346 z M 33.78 34.136 l -1.003 1.107 l -2.06 -5.265 c 0.16 -0.158 1.004 -0.895 1.004 -0.895 l 2.06 5.054 L 33.78 34.136 z M 34.94 26.136 c 0.212 -0.16 1.268 -1.16 1.268 -1.16 l 1.32 3.634 l -1.162 1.58 l -1.425 -4.055 L 34.94 26.136 z M 25.807 45.616 c 0 0 -3.96 -8.32 -3.907 -8.478 l 1.848 -1.264 c 0 0 3.38 8.055 3.273 8.424 c -0.104 0.37 -1.213 1.317 -1.213 1.317 L 25.807 45.616 z M 27.972 43.299 c 0 0 -3.326 -8.004 -3.22 -8.32 c 0.05 -0.15 1.055 -1.106 1.213 -1.106 c 0.158 0 3.22 7.845 3.168 8.055 S 27.973 43.298 27.972 43.299 L 27.972 43.299 z M 29.714 40.876 c -0.106 -0.21 -2.957 -7.424 -2.798 -7.687 c 0.174 -0.29 0.95 -0.79 0.95 -0.79 l 2.534 7.424 C 30.4 39.823 29.82 41.086 29.714 40.876 z M 30.824 37.611 c 0 0 -2.113 -5.74 -1.955 -6.107 c 0.087 -0.205 0.844 -0.843 1.055 -0.843 c 0.21 0 2.217 5.107 2.165 5.318 c -0.053 0.21 -1.267 1.632 -1.267 1.632 H 30.824 z M 41.594 41.745 c -1.11 0.553 -9.503 -2.685 -9.503 -3 c 0 -0.317 13.227 -18.402 13.702 -18.876 C 46.073 19.589 42.703 41.192 41.594 41.745 L 41.594 41.745 z" stroke-linecap="round" />
</g>
</svg>